<!DOCTYPE svg PUBLIC "-//W3C//DTD SVG 20010904//EN" "http://www.w3.org/TR/2001/REC-SVG-20010904/DTD/svg10.dtd">
<svg version="1.0" xmlns="http://www.w3.org/2000/svg" width="27px" height="26px" viewBox="0 0 5120 5120"
	preserveAspectRatio="xMidYMid meet">
	<g id="layer101" fill="#ffffff" stroke="none">
		<path
			d="M266 5093 c-14 -14 -29 -37 -32 -50 -8 -31 373 -3598 389 -3643 7 -19 28 -45 46 -57 34 -23 36 -23 412 -23 l379 0 0 -169 c0 -183 12 -273 55 -401 56 -168 133 -289 269 -426 172 -171 347 -264 579 -309 102 -19 312 -19 414 0 335 64 622 277 779 578 95 183 124 316 124 563 l0 164 369 0 c366 0 368 0 402 23 18 12 39 38 46 57 16 45 397 3612 389 3643 -3 13 -18 36 -32 50 l-27 27 -2267 0 -2267 0 -27 -27z m4384 -238 c0 -14 -79 -760 -175 -1658 -96 -898 -175 -1636 -175 -1640 0 -4 -144 -7 -320 -7 l-320 0 0 103 0 104 39 18 c54 24 115 90 146 157 20 44 26 73 26 128 1 106 -22 163 -95 236 -71 71 -133 97 -231 97 -99 -1 -160 -26 -230 -97 -73 -74 -95 -129 -95 -236 0 -62 5 -86 29 -135 30 -65 96 -132 149 -154 l32 -13 0 -104 0 -104 -875 0 -875 0 0 103 1 102 41 19 c92 43 165 153 175 265 10 112 -47 234 -140 298 -165 112 -397 53 -484 -125 -24 -50 -28 -69 -28 -147 0 -78 4 -97 28 -147 31 -63 100 -131 153 -150 l34 -12 0 -103 0 -103 -310 0 c-171 0 -310 1 -310 3 0 6 -349 3273 -353 3300 l-4 27 2084 0 2083 0 0 -25z m-3030 -2700 c59 -30 68 -98 21 -146 -41 -40 -91 -40 -132 0 -46 47 -38 115 19 145 35 19 56 20 92 1z m1989 1 c56 -29 67 -102 22 -147 -42 -42 -99 -41 -135 2 -42 50 -32 114 22 143 34 19 56 20 91 2z m-169 -998 c0 -196 -18 -287 -85 -425 -161 -331 -516 -532 -873 -492 -229 25 -440 139 -588 317 -63 76 -146 237 -169 327 -20 76 -34 223 -35 343 l0 92 875 0 875 0 0 -162z" 
			/>
	</g>

</svg>